# xmcd
#
# Track frame offsets: 
#        188
#        17865
#        28100
#        40170
#        48840
#        59283
#        67845
#        80463
#        88560
#        101320
#        109110
#        117765
#        136788
#        157883
#        180663
#
# Disc length: 2684 seconds
#
# Revision: 5
# Processed by: cddbd v1.5.2PL0 Copyright (c) Steve Scherf et al.
# Submitted via: ExactAudioCopy v1.3
#
DISCID=af0a7a0f
DTITLE=Nirvana - Incesticide
DYEAR=1992
DGENRE=Grunge
TTITLE0=Dive
TTITLE1=Sliver
TTITLE2=Stain
TTITLE3=Been a Son (Mark Goodier Session)
TTITLE4=Turnaround (John Peel Session)
TTITLE5=Molly's Lips (John Peel Session)
TTITLE6=Son of a Gun (John Peel Session)
TTITLE7=(New Wave) Polly (Mark Goodier Session)
TTITLE8=Beeswax
TTITLE9=Downer
TTITLE10=Mexican Seafood
TTITLE11=Hairspray Queen
TTITLE12=Aero Zeppelin
TTITLE13=Big Long Now
TTITLE14=Aneurysm (Mark Goodier Session)
EXTD=
EXTT0=
EXTT1=
EXTT2=
EXTT3=
EXTT4=
EXTT5=
EXTT6=
EXTT7=
EXTT8=
EXTT9=
EXTT10=
EXTT11=
EXTT12=
EXTT13=
EXTT14=
PLAYORDER=
